<svg width="130" height="34" viewBox="0 0 130 34" fill="none" xmlns="http://www.w3.org/2000/svg">
<path d="M23.2977 17.4956C23.2977 27.9096 18.3138 33.1166 8.34611 33.1166H0V2.18695H7.81053C12.482 2.18695 16.231 3.28786 19.0577 5.48969C21.8843 7.66176 23.2977 11.6637 23.2977 17.4956ZM15.7549 17.4956C15.7549 13.6573 15.1599 11.0389 13.9697 9.64042C12.7795 8.21221 11.0835 7.49811 8.88168 7.49811H7.31958V27.8055H8.88168C11.1133 27.8055 12.8093 27.0467 13.9697 25.5293C15.1599 23.982 15.7549 21.3041 15.7549 17.4956Z" fill="black"/>
<path d="M37.8301 8.61389C41.4304 8.61389 44.2422 9.75944 46.2655 12.0505C48.3186 14.3119 49.3451 17.3617 49.3451 21.2C49.3451 25.1871 48.3334 28.2964 46.3101 30.528C44.2868 32.7596 41.4602 33.8754 37.8301 33.8754C34.2001 33.8754 31.3734 32.7745 29.3501 30.5726C27.3268 28.3411 26.3152 25.2317 26.3152 21.2446C26.3152 18.7155 26.7615 16.5137 27.6541 14.6392C28.5765 12.7349 29.9006 11.262 31.6264 10.2206C33.3819 9.14947 35.4498 8.61389 37.8301 8.61389ZM37.8301 13.8358C36.3722 13.8358 35.301 14.4309 34.6167 15.6211C33.9323 16.7815 33.5901 18.656 33.5901 21.2446C33.5901 23.863 33.9323 25.7673 34.6167 26.9575C35.301 28.1179 36.3722 28.6981 37.8301 28.6981C39.2881 28.6981 40.3593 28.103 41.0436 26.9128C41.728 25.7227 42.0701 23.8184 42.0701 21.2C42.0701 18.6411 41.728 16.7815 41.0436 15.6211C40.3593 14.4309 39.2881 13.8358 37.8301 13.8358Z" fill="black"/>
<path d="M66.6893 25.6632C66.6893 27.4187 67.701 28.2964 69.7243 28.2964C70.8252 28.2964 71.9559 28.0584 73.1163 27.5823L74.7677 32.3133C72.8634 33.3547 70.5872 33.8754 67.939 33.8754C65.1719 33.8754 63.0891 33.0869 61.6906 31.5099C60.3219 29.9032 59.6375 27.6567 59.6375 24.7705V4.82021H52.675V0H66.6893V25.6632Z" fill="black"/>
<path d="M93.674 28.2964C94.5666 28.2964 95.4295 28.1328 96.2626 27.8055C97.0958 27.4484 97.9884 26.9426 98.9405 26.288L102.065 30.7512C100.934 31.7033 99.6249 32.462 98.1372 33.0274C96.6495 33.5927 95.0278 33.8754 93.2723 33.8754C90.7432 33.8754 88.5563 33.3547 86.7115 32.3133C84.8965 31.2719 83.498 29.8139 82.5161 27.9394C81.5342 26.0648 81.0433 23.8928 81.0433 21.4232C81.0433 18.9535 81.5491 16.7517 82.5607 14.8177C83.5724 12.8836 85.0006 11.3662 86.8454 10.2653C88.7199 9.16435 90.9069 8.61389 93.4062 8.61389C95.1617 8.61389 96.7387 8.86681 98.1372 9.37263C99.5356 9.8487 100.845 10.5926 102.065 11.6042L99.0298 15.8442C97.304 14.654 95.5337 14.0589 93.7186 14.0589C90.1779 14.0589 88.4075 16.5137 88.4075 21.4232C88.4075 23.8928 88.8687 25.6632 89.7911 26.7343C90.7134 27.7757 92.0078 28.2964 93.674 28.2964Z" fill="black"/>
<path d="M113.964 23.3423C114.41 26.9426 116.315 28.7427 119.677 28.7427C121.7 28.7427 123.723 28.0881 125.747 26.7789L128.558 30.6173C127.398 31.6289 126.014 32.4323 124.408 33.0274C122.801 33.5927 121.031 33.8754 119.097 33.8754C116.448 33.8754 114.202 33.3547 112.357 32.3133C110.512 31.2421 109.114 29.7693 108.162 27.8947C107.239 25.9905 106.778 23.7886 106.778 21.2893C106.778 18.9089 107.225 16.7666 108.117 14.8623C109.04 12.9283 110.364 11.4108 112.089 10.3099C113.845 9.17923 115.928 8.61389 118.338 8.61389C120.599 8.61389 122.563 9.10484 124.229 10.0867C125.895 11.0389 127.175 12.4373 128.068 14.2821C128.99 16.0971 129.451 18.2692 129.451 20.7983C129.451 21.7802 129.406 22.6282 129.317 23.3423H113.964ZM118.338 13.3448C117.058 13.3448 116.032 13.8209 115.258 14.7731C114.485 15.6954 114.023 17.1236 113.875 19.0577H122.578C122.518 15.2491 121.105 13.3448 118.338 13.3448Z" fill="black"/>
</svg>
