<svg width="130" height="35" viewBox="0 0 130 35" fill="none" xmlns="http://www.w3.org/2000/svg">
<path d="M23.2977 18.3789C23.2977 28.793 18.3138 34 8.34611 34H0V3.07032H7.81053C12.482 3.07032 16.231 4.17123 19.0577 6.37305C21.8843 8.54513 23.2977 12.5471 23.2977 18.3789ZM15.7549 18.3789C15.7549 14.5406 15.1599 11.9222 13.9697 10.5238C12.7795 9.09558 11.0835 8.38148 8.88168 8.38148H7.31958V28.6888H8.88168C11.1133 28.6888 12.8093 27.9301 13.9697 26.4126C15.1599 24.8654 15.7549 22.1875 15.7549 18.3789Z" fill="white"/>
<path d="M37.8301 9.49726C41.4304 9.49726 44.2422 10.6428 46.2655 12.9339C48.3186 15.1952 49.3451 18.2451 49.3451 22.0834C49.3451 26.0705 48.3334 29.1798 46.3101 31.4114C44.2868 33.6429 41.4602 34.7587 37.8301 34.7587C34.2001 34.7587 31.3734 33.6578 29.3501 31.456C27.3268 29.2244 26.3152 26.1151 26.3152 22.128C26.3152 19.5989 26.7615 17.3971 27.6541 15.5225C28.5765 13.6182 29.9006 12.1454 31.6264 11.104C33.3819 10.0328 35.4498 9.49726 37.8301 9.49726ZM37.8301 14.7192C36.3722 14.7192 35.301 15.3142 34.6167 16.5044C33.9323 17.6648 33.5901 19.5394 33.5901 22.128C33.5901 24.7464 33.9323 26.6507 34.6167 27.8408C35.301 29.0013 36.3722 29.5815 37.8301 29.5815C39.2881 29.5815 40.3593 28.9864 41.0436 27.7962C41.728 26.606 42.0701 24.7018 42.0701 22.0834C42.0701 19.5245 41.728 17.6648 41.0436 16.5044C40.3593 15.3142 39.2881 14.7192 37.8301 14.7192Z" fill="white"/>
<path d="M66.6893 26.5465C66.6893 28.302 67.701 29.1798 69.7243 29.1798C70.8252 29.1798 71.9559 28.9418 73.1163 28.4657L74.7677 33.1966C72.8634 34.238 70.5872 34.7587 67.939 34.7587C65.1719 34.7587 63.0891 33.9702 61.6906 32.3933C60.3219 30.7865 59.6375 28.5401 59.6375 25.6539V5.70358H52.675V0.883369H66.6893V26.5465Z" fill="white"/>
<path d="M93.674 29.1798C94.5666 29.1798 95.4295 29.0161 96.2626 28.6888C97.0958 28.3318 97.9884 27.826 98.9405 27.1714L102.065 31.6345C100.934 32.5867 99.6249 33.3454 98.1372 33.9107C96.6495 34.4761 95.0278 34.7587 93.2723 34.7587C90.7432 34.7587 88.5563 34.238 86.7115 33.1966C84.8965 32.1552 83.498 30.6973 82.5161 28.8227C81.5342 26.9482 81.0433 24.7761 81.0433 22.3065C81.0433 19.8369 81.5491 17.6351 82.5607 15.7011C83.5724 13.767 85.0006 12.2495 86.8454 11.1486C88.7199 10.0477 90.9069 9.49726 93.4062 9.49726C95.1617 9.49726 96.7387 9.75018 98.1372 10.256C99.5356 10.7321 100.845 11.4759 102.065 12.4876L99.0298 16.7276C97.304 15.5374 95.5337 14.9423 93.7186 14.9423C90.1779 14.9423 88.4075 17.3971 88.4075 22.3065C88.4075 24.7761 88.8687 26.5465 89.7911 27.6177C90.7134 28.6591 92.0078 29.1798 93.674 29.1798Z" fill="white"/>
<path d="M113.964 24.2257C114.41 27.826 116.315 29.6261 119.677 29.6261C121.7 29.6261 123.723 28.9715 125.747 27.6623L128.558 31.5006C127.398 32.5123 126.014 33.3156 124.408 33.9107C122.801 34.4761 121.031 34.7587 119.097 34.7587C116.448 34.7587 114.202 34.238 112.357 33.1966C110.512 32.1255 109.114 30.6526 108.162 28.7781C107.239 26.8738 106.778 24.672 106.778 22.1726C106.778 19.7923 107.225 17.65 108.117 15.7457C109.04 13.8117 110.364 12.2942 112.089 11.1933C113.845 10.0626 115.928 9.49726 118.338 9.49726C120.599 9.49726 122.563 9.98821 124.229 10.9701C125.895 11.9222 127.175 13.3207 128.068 15.1655C128.99 16.9805 129.451 19.1526 129.451 21.6817C129.451 22.6636 129.406 23.5116 129.317 24.2257H113.964ZM118.338 14.2282C117.058 14.2282 116.032 14.7043 115.258 15.6564C114.485 16.5788 114.023 18.007 113.875 19.9411H122.578C122.518 16.1325 121.105 14.2282 118.338 14.2282Z" fill="white"/>
</svg>
